# xmcd CD database file
#
# Track frame offsets:
#	150
#	32940
#	46022
#	85200
#	93882
#	103725
#	114392
#	126180
#	141027
#	145590
#	156632
#
# Disc length: 2235 seconds
#
# Revision: 1
# Processed by: cddbd v1.5PL3 Copyright (c) Steve Scherf et al.
# Submitted via: CDex 1.51
#
DISCID=8f08b90b
DTITLE=SACRA - ついのすみか
DYEAR=1991
DGENRE=JPop
TTITLE0=南冥行／蘭の舟／ケシの花 
TTITLE1=ナーダムがやってきた 
TTITLE2=馬車夫の恋／お姫さま／ふらり／春来ませり 
TTITLE3=ガブリエルのラッパ 
TTITLE4=チベットワルツ 
TTITLE5=夢の秘密 
TTITLE6=雲南の風 
TTITLE7=基隆で 
TTITLE8=さくらさくら 
TTITLE9=トラジ 
TTITLE10=わーい 
EXTD=YEAR: 1991
EXTT0=
EXTT1=
EXTT2=
EXTT3=
EXTT4=
EXTT5=
EXTT6=
EXTT7=
EXTT8=
EXTT9=
EXTT10=
PLAYORDER=
